<svg style="overflow: hidden; position: relative;" xmlns="http://www.w3.org/2000/svg" xmlns:xlink="http://www.w3.org/1999/xlink" width="1037" version="1.1" height="774"><path transform="matrix(1,0,0,1,0,0)" fill="none" stroke="#000" d="M0.5,0L0.5,3870" stroke-opacity="0.4" stroke-width="1"></path><path transform="matrix(1,0,0,1,0,0)" fill="none" stroke="#000" d="M50.5,0L50.5,3870" stroke-opacity="0.4" stroke-width="1"></path><path transform="matrix(1,0,0,1,0,0)" fill="none" stroke="#000" d="M100.5,0L100.5,3870" stroke-opacity="0.4" stroke-width="1"></path><path transform="matrix(1,0,0,1,0,0)" fill="none" stroke="#000" d="M150.5,0L150.5,3870" stroke-opacity="0.4" stroke-width="1"></path><path transform="matrix(1,0,0,1,0,0)" fill="none" stroke="#000" d="M200.5,0L200.5,3870" stroke-opacity="0.4" stroke-width="1"></path><path transform="matrix(1,0,0,1,0,0)" fill="none" stroke="#000" d="M250.5,0L250.5,3870" stroke-opacity="0.4" stroke-width="1"></path><path transform="matrix(1,0,0,1,0,0)" fill="none" stroke="#000" d="M300.5,0L300.5,3870" stroke-opacity="0.4" stroke-width="1"></path><path transform="matrix(1,0,0,1,0,0)" fill="none" stroke="#000" d="M350.5,0L350.5,3870" stroke-opacity="0.4" stroke-width="1"></path><path transform="matrix(1,0,0,1,0,0)" fill="none" stroke="#000" d="M400.5,0L400.5,3870" stroke-opacity="0.4" stroke-width="1"></path><path transform="matrix(1,0,0,1,0,0)" fill="none" stroke="#000" d="M450.5,0L450.5,3870" stroke-opacity="0.4" stroke-width="1"></path><path transform="matrix(1,0,0,1,0,0)" fill="none" stroke="#000" d="M500.5,0L500.5,3870" stroke-opacity="0.4" stroke-width="1"></path><path transform="matrix(1,0,0,1,0,0)" fill="none" stroke="#000" d="M550.5,0L550.5,3870" stroke-opacity="0.4" stroke-width="1"></path><path transform="matrix(1,0,0,1,0,0)" fill="none" stroke="#000" d="M600.5,0L600.5,3870" stroke-opacity="0.4" stroke-width="1"></path><path transform="matrix(1,0,0,1,0,0)" fill="none" stroke="#000" d="M650.5,0L650.5,3870" stroke-opacity="0.4" stroke-width="1"></path><path transform="matrix(1,0,0,1,0,0)" fill="none" stroke="#000" d="M700.5,0L700.5,3870" stroke-opacity="0.4" stroke-width="1"></path><path transform="matrix(1,0,0,1,0,0)" fill="none" stroke="#000" d="M750.5,0L750.5,3870" stroke-opacity="0.4" stroke-width="1"></path><path transform="matrix(1,0,0,1,0,0)" fill="none" stroke="#000" d="M800.5,0L800.5,3870" stroke-opacity="0.4" stroke-width="1"></path><path transform="matrix(1,0,0,1,0,0)" fill="none" stroke="#000" d="M850.5,0L850.5,3870" stroke-opacity="0.4" stroke-width="1"></path><path transform="matrix(1,0,0,1,0,0)" fill="none" stroke="#000" d="M900.5,0L900.5,3870" stroke-opacity="0.4" stroke-width="1"></path><path transform="matrix(1,0,0,1,0,0)" fill="none" stroke="#000" d="M950.5,0L950.5,3870" stroke-opacity="0.4" stroke-width="1"></path><path transform="matrix(1,0,0,1,0,0)" fill="none" stroke="#000" d="M1000.5,0L1000.5,3870" stroke-opacity="0.4" stroke-width="1"></path><path transform="matrix(1,0,0,1,0,0)" fill="none" stroke="#000" d="M1050.5,0L1050.5,3870" stroke-opacity="0.4" stroke-width="1"></path><path transform="matrix(1,0,0,1,0,0)" fill="none" stroke="#000" d="M1100.5,0L1100.5,3870" stroke-opacity="0.4" stroke-width="1"></path><path transform="matrix(1,0,0,1,0,0)" fill="none" stroke="#000" d="M1150.5,0L1150.5,3870" stroke-opacity="0.4" stroke-width="1"></path><path transform="matrix(1,0,0,1,0,0)" fill="none" stroke="#000" d="M1200.5,0L1200.5,3870" stroke-opacity="0.4" stroke-width="1"></path><path transform="matrix(1,0,0,1,0,0)" fill="none" stroke="#000" d="M1250.5,0L1250.5,3870" stroke-opacity="0.4" stroke-width="1"></path><path transform="matrix(1,0,0,1,0,0)" fill="none" stroke="#000" d="M1300.5,0L1300.5,3870" stroke-opacity="0.4" stroke-width="1"></path><path transform="matrix(1,0,0,1,0,0)" fill="none" stroke="#000" d="M1350.5,0L1350.5,3870" stroke-opacity="0.4" stroke-width="1"></path><path transform="matrix(1,0,0,1,0,0)" fill="none" stroke="#000" d="M1400.5,0L1400.5,3870" stroke-opacity="0.4" stroke-width="1"></path><path transform="matrix(1,0,0,1,0,0)" fill="none" stroke="#000" d="M1450.5,0L1450.5,3870" stroke-opacity="0.4" stroke-width="1"></path><path transform="matrix(1,0,0,1,0,0)" fill="none" stroke="#000" d="M1500.5,0L1500.5,3870" stroke-opacity="0.4" stroke-width="1"></path><path transform="matrix(1,0,0,1,0,0)" fill="none" stroke="#000" d="M1550.5,0L1550.5,3870" stroke-opacity="0.4" stroke-width="1"></path><path transform="matrix(1,0,0,1,0,0)" fill="none" stroke="#000" d="M1600.5,0L1600.5,3870" stroke-opacity="0.4" stroke-width="1"></path><path transform="matrix(1,0,0,1,0,0)" fill="none" stroke="#000" d="M1650.5,0L1650.5,3870" stroke-opacity="0.4" stroke-width="1"></path><path transform="matrix(1,0,0,1,0,0)" fill="none" stroke="#000" d="M1700.5,0L1700.5,3870" stroke-opacity="0.4" stroke-width="1"></path><path transform="matrix(1,0,0,1,0,0)" fill="none" stroke="#000" d="M1750.5,0L1750.5,3870" stroke-opacity="0.4" stroke-width="1"></path><path transform="matrix(1,0,0,1,0,0)" fill="none" stroke="#000" d="M1800.5,0L1800.5,3870" stroke-opacity="0.4" stroke-width="1"></path><path transform="matrix(1,0,0,1,0,0)" fill="none" stroke="#000" d="M1850.5,0L1850.5,3870" stroke-opacity="0.4" stroke-width="1"></path><path transform="matrix(1,0,0,1,0,0)" fill="none" stroke="#000" d="M1900.5,0L1900.5,3870" stroke-opacity="0.4" stroke-width="1"></path><path transform="matrix(1,0,0,1,0,0)" fill="none" stroke="#000" d="M1950.5,0L1950.5,3870" stroke-opacity="0.4" stroke-width="1"></path><path transform="matrix(1,0,0,1,0,0)" fill="none" stroke="#000" d="M2000.5,0L2000.5,3870" stroke-opacity="0.4" stroke-width="1"></path><path transform="matrix(1,0,0,1,0,0)" fill="none" stroke="#000" d="M2050.5,0L2050.5,3870" stroke-opacity="0.4" stroke-width="1"></path><path transform="matrix(1,0,0,1,0,0)" fill="none" stroke="#000" d="M2100.5,0L2100.5,3870" stroke-opacity="0.4" stroke-width="1"></path><path transform="matrix(1,0,0,1,0,0)" fill="none" stroke="#000" d="M2150.5,0L2150.5,3870" stroke-opacity="0.4" stroke-width="1"></path><path transform="matrix(1,0,0,1,0,0)" fill="none" stroke="#000" d="M2200.5,0L2200.5,3870" stroke-opacity="0.4" stroke-width="1"></path><path transform="matrix(1,0,0,1,0,0)" fill="none" stroke="#000" d="M2250.5,0L2250.5,3870" stroke-opacity="0.4" stroke-width="1"></path><path transform="matrix(1,0,0,1,0,0)" fill="none" stroke="#000" d="M2300.5,0L2300.5,3870" stroke-opacity="0.4" stroke-width="1"></path><path transform="matrix(1,0,0,1,0,0)" fill="none" stroke="#000" d="M2350.5,0L2350.5,3870" stroke-opacity="0.4" stroke-width="1"></path><path transform="matrix(1,0,0,1,0,0)" fill="none" stroke="#000" d="M2400.5,0L2400.5,3870" stroke-opacity="0.4" stroke-width="1"></path><path transform="matrix(1,0,0,1,0,0)" fill="none" stroke="#000" d="M2450.5,0L2450.5,3870" stroke-opacity="0.4" stroke-width="1"></path><path transform="matrix(1,0,0,1,0,0)" fill="none" stroke="#000" d="M2500.5,0L2500.5,3870" stroke-opacity="0.4" stroke-width="1"></path><path transform="matrix(1,0,0,1,0,0)" fill="none" stroke="#000" d="M2550.5,0L2550.5,3870" stroke-opacity="0.4" stroke-width="1"></path><path transform="matrix(1,0,0,1,0,0)" fill="none" stroke="#000" d="M2600.5,0L2600.5,3870" stroke-opacity="0.4" stroke-width="1"></path><path transform="matrix(1,0,0,1,0,0)" fill="none" stroke="#000" d="M2650.5,0L2650.5,3870" stroke-opacity="0.4" stroke-width="1"></path><path transform="matrix(1,0,0,1,0,0)" fill="none" stroke="#000" d="M2700.5,0L2700.5,3870" stroke-opacity="0.4" stroke-width="1"></path><path transform="matrix(1,0,0,1,0,0)" fill="none" stroke="#000" d="M2750.5,0L2750.5,3870" stroke-opacity="0.4" stroke-width="1"></path><path transform="matrix(1,0,0,1,0,0)" fill="none" stroke="#000" d="M2800.5,0L2800.5,3870" stroke-opacity="0.4" stroke-width="1"></path><path transform="matrix(1,0,0,1,0,0)" fill="none" stroke="#000" d="M2850.5,0L2850.5,3870" stroke-opacity="0.4" stroke-width="1"></path><path transform="matrix(1,0,0,1,0,0)" fill="none" stroke="#000" d="M2900.5,0L2900.5,3870" stroke-opacity="0.4" stroke-width="1"></path><path transform="matrix(1,0,0,1,0,0)" fill="none" stroke="#000" d="M2950.5,0L2950.5,3870" stroke-opacity="0.4" stroke-width="1"></path><path transform="matrix(1,0,0,1,0,0)" fill="none" stroke="#000" d="M3000.5,0L3000.5,3870" stroke-opacity="0.4" stroke-width="1"></path><path transform="matrix(1,0,0,1,0,0)" fill="none" stroke="#000" d="M3050.5,0L3050.5,3870" stroke-opacity="0.4" stroke-width="1"></path><path transform="matrix(1,0,0,1,0,0)" fill="none" stroke="#000" d="M3100.5,0L3100.5,3870" stroke-opacity="0.4" stroke-width="1"></path><path transform="matrix(1,0,0,1,0,0)" fill="none" stroke="#000" d="M3150.5,0L3150.5,3870" stroke-opacity="0.4" stroke-width="1"></path><path transform="matrix(1,0,0,1,0,0)" fill="none" stroke="#000" d="M3200.5,0L3200.5,3870" stroke-opacity="0.4" stroke-width="1"></path><path transform="matrix(1,0,0,1,0,0)" fill="none" stroke="#000" d="M3250.5,0L3250.5,3870" stroke-opacity="0.4" stroke-width="1"></path><path transform="matrix(1,0,0,1,0,0)" fill="none" stroke="#000" d="M3300.5,0L3300.5,3870" stroke-opacity="0.4" stroke-width="1"></path><path transform="matrix(1,0,0,1,0,0)" fill="none" stroke="#000" d="M3350.5,0L3350.5,3870" stroke-opacity="0.4" stroke-width="1"></path><path transform="matrix(1,0,0,1,0,0)" fill="none" stroke="#000" d="M3400.5,0L3400.5,3870" stroke-opacity="0.4" stroke-width="1"></path><path transform="matrix(1,0,0,1,0,0)" fill="none" stroke="#000" d="M3450.5,0L3450.5,3870" stroke-opacity="0.4" stroke-width="1"></path><path transform="matrix(1,0,0,1,0,0)" fill="none" stroke="#000" d="M3500.5,0L3500.5,3870" stroke-opacity="0.4" stroke-width="1"></path><path transform="matrix(1,0,0,1,0,0)" fill="none" stroke="#000" d="M3550.5,0L3550.5,3870" stroke-opacity="0.4" stroke-width="1"></path><path transform="matrix(1,0,0,1,0,0)" fill="none" stroke="#000" d="M3600.5,0L3600.5,3870" stroke-opacity="0.4" stroke-width="1"></path><path transform="matrix(1,0,0,1,0,0)" fill="none" stroke="#000" d="M3650.5,0L3650.5,3870" stroke-opacity="0.4" stroke-width="1"></path><path transform="matrix(1,0,0,1,0,0)" fill="none" stroke="#000" d="M3700.5,0L3700.5,3870" stroke-opacity="0.4" stroke-width="1"></path><path transform="matrix(1,0,0,1,0,0)" fill="none" stroke="#000" d="M3750.5,0L3750.5,3870" stroke-opacity="0.4" stroke-width="1"></path><path transform="matrix(1,0,0,1,0,0)" fill="none" stroke="#000" d="M3800.5,0L3800.5,3870" stroke-opacity="0.4" stroke-width="1"></path><path transform="matrix(1,0,0,1,0,0)" fill="none" stroke="#000" d="M3850.5,0L3850.5,3870" stroke-opacity="0.4" stroke-width="1"></path><path transform="matrix(1,0,0,1,0,0)" fill="none" stroke="#000" d="M3900.5,0L3900.5,3870" stroke-opacity="0.4" stroke-width="1"></path><path transform="matrix(1,0,0,1,0,0)" fill="none" stroke="#000" d="M3950.5,0L3950.5,3870" stroke-opacity="0.4" stroke-width="1"></path><path transform="matrix(1,0,0,1,0,0)" fill="none" stroke="#000" d="M4000.5,0L4000.5,3870" stroke-opacity="0.4" stroke-width="1"></path><path transform="matrix(1,0,0,1,0,0)" fill="none" stroke="#000" d="M4050.5,0L4050.5,3870" stroke-opacity="0.4" stroke-width="1"></path><path transform="matrix(1,0,0,1,0,0)" fill="none" stroke="#000" d="M4100.5,0L4100.5,3870" stroke-opacity="0.4" stroke-width="1"></path><path transform="matrix(1,0,0,1,0,0)" fill="none" stroke="#000" d="M4150.5,0L4150.5,3870" stroke-opacity="0.4" stroke-width="1"></path><path transform="matrix(1,0,0,1,0,0)" fill="none" stroke="#000" d="M4200.5,0L4200.5,3870" stroke-opacity="0.4" stroke-width="1"></path><path transform="matrix(1,0,0,1,0,0)" fill="none" stroke="#000" d="M4250.5,0L4250.5,3870" stroke-opacity="0.4" stroke-width="1"></path><path transform="matrix(1,0,0,1,0,0)" fill="none" stroke="#000" d="M4300.5,0L4300.5,3870" stroke-opacity="0.4" stroke-width="1"></path><path transform="matrix(1,0,0,1,0,0)" fill="none" stroke="#000" d="M4350.5,0L4350.5,3870" stroke-opacity="0.4" stroke-width="1"></path><path transform="matrix(1,0,0,1,0,0)" fill="none" stroke="#000" d="M4400.5,0L4400.5,3870" stroke-opacity="0.4" stroke-width="1"></path><path transform="matrix(1,0,0,1,0,0)" fill="none" stroke="#000" d="M4450.5,0L4450.5,3870" stroke-opacity="0.4" stroke-width="1"></path><path transform="matrix(1,0,0,1,0,0)" fill="none" stroke="#000" d="M4500.5,0L4500.5,3870" stroke-opacity="0.4" stroke-width="1"></path><path transform="matrix(1,0,0,1,0,0)" fill="none" stroke="#000" d="M4550.5,0L4550.5,3870" stroke-opacity="0.4" stroke-width="1"></path><path transform="matrix(1,0,0,1,0,0)" fill="none" stroke="#000" d="M4600.5,0L4600.5,3870" stroke-opacity="0.4" stroke-width="1"></path><path transform="matrix(1,0,0,1,0,0)" fill="none" stroke="#000" d="M4650.5,0L4650.5,3870" stroke-opacity="0.4" stroke-width="1"></path><path transform="matrix(1,0,0,1,0,0)" fill="none" stroke="#000" d="M4700.5,0L4700.5,3870" stroke-opacity="0.4" stroke-width="1"></path><path transform="matrix(1,0,0,1,0,0)" fill="none" stroke="#000" d="M4750.5,0L4750.5,3870" stroke-opacity="0.4" stroke-width="1"></path><path transform="matrix(1,0,0,1,0,0)" fill="none" stroke="#000" d="M4800.5,0L4800.5,3870" stroke-opacity="0.4" stroke-width="1"></path><path transform="matrix(1,0,0,1,0,0)" fill="none" stroke="#000" d="M4850.5,0L4850.5,3870" stroke-opacity="0.4" stroke-width="1"></path><path transform="matrix(1,0,0,1,0,0)" fill="none" stroke="#000" d="M4900.5,0L4900.5,3870" stroke-opacity="0.4" stroke-width="1"></path><path transform="matrix(1,0,0,1,0,0)" fill="none" stroke="#000" d="M4950.5,0L4950.5,3870" stroke-opacity="0.4" stroke-width="1"></path><path transform="matrix(1,0,0,1,0,0)" fill="none" stroke="#000" d="M5000.5,0L5000.5,3870" stroke-opacity="0.4" stroke-width="1"></path><path transform="matrix(1,0,0,1,0,0)" fill="none" stroke="#000" d="M5050.5,0L5050.5,3870" stroke-opacity="0.4" stroke-width="1"></path><path transform="matrix(1,0,0,1,0,0)" fill="none" stroke="#000" d="M5100.5,0L5100.5,3870" stroke-opacity="0.4" stroke-width="1"></path><path transform="matrix(1,0,0,1,0,0)" fill="none" stroke="#000" d="M5150.5,0L5150.5,3870" stroke-opacity="0.4" stroke-width="1"></path><path transform="matrix(1,0,0,1,0,0)" fill="none" stroke="#000" d="M0,0.5L5185,0.5" stroke-opacity="0.4" stroke-width="1"></path><path transform="matrix(1,0,0,1,0,0)" fill="none" stroke="#000" d="M0,50.5L5185,50.5" stroke-opacity="0.4" stroke-width="1"></path><path transform="matrix(1,0,0,1,0,0)" fill="none" stroke="#000" d="M0,100.5L5185,100.5" stroke-opacity="0.4" stroke-width="1"></path><path transform="matrix(1,0,0,1,0,0)" fill="none" stroke="#000" d="M0,150.5L5185,150.5" stroke-opacity="0.4" stroke-width="1"></path><path transform="matrix(1,0,0,1,0,0)" fill="none" stroke="#000" d="M0,200.5L5185,200.5" stroke-opacity="0.4" stroke-width="1"></path><path transform="matrix(1,0,0,1,0,0)" fill="none" stroke="#000" d="M0,250.5L5185,250.5" stroke-opacity="0.4" stroke-width="1"></path><path transform="matrix(1,0,0,1,0,0)" fill="none" stroke="#000" d="M0,300.5L5185,300.5" stroke-opacity="0.4" stroke-width="1"></path><path transform="matrix(1,0,0,1,0,0)" fill="none" stroke="#000" d="M0,350.5L5185,350.5" stroke-opacity="0.4" stroke-width="1"></path><path transform="matrix(1,0,0,1,0,0)" fill="none" stroke="#000" d="M0,400.5L5185,400.5" stroke-opacity="0.4" stroke-width="1"></path><path transform="matrix(1,0,0,1,0,0)" fill="none" stroke="#000" d="M0,450.5L5185,450.5" stroke-opacity="0.4" stroke-width="1"></path><path transform="matrix(1,0,0,1,0,0)" fill="none" stroke="#000" d="M0,500.5L5185,500.5" stroke-opacity="0.4" stroke-width="1"></path><path transform="matrix(1,0,0,1,0,0)" fill="none" stroke="#000" d="M0,550.5L5185,550.5" stroke-opacity="0.4" stroke-width="1"></path><path transform="matrix(1,0,0,1,0,0)" fill="none" stroke="#000" d="M0,600.5L5185,600.5" stroke-opacity="0.4" stroke-width="1"></path><path transform="matrix(1,0,0,1,0,0)" fill="none" stroke="#000" d="M0,650.5L5185,650.5" stroke-opacity="0.4" stroke-width="1"></path><path transform="matrix(1,0,0,1,0,0)" fill="none" stroke="#000" d="M0,700.5L5185,700.5" stroke-opacity="0.4" stroke-width="1"></path><path transform="matrix(1,0,0,1,0,0)" fill="none" stroke="#000" d="M0,750.5L5185,750.5" stroke-opacity="0.4" stroke-width="1"></path><path transform="matrix(1,0,0,1,0,0)" fill="none" stroke="#000" d="M0,800.5L5185,800.5" stroke-opacity="0.4" stroke-width="1"></path><path transform="matrix(1,0,0,1,0,0)" fill="none" stroke="#000" d="M0,850.5L5185,850.5" stroke-opacity="0.4" stroke-width="1"></path><path transform="matrix(1,0,0,1,0,0)" fill="none" stroke="#000" d="M0,900.5L5185,900.5" stroke-opacity="0.4" stroke-width="1"></path><path transform="matrix(1,0,0,1,0,0)" fill="none" stroke="#000" d="M0,950.5L5185,950.5" stroke-opacity="0.4" stroke-width="1"></path><path transform="matrix(1,0,0,1,0,0)" fill="none" stroke="#000" d="M0,1000.5L5185,1000.5" stroke-opacity="0.4" stroke-width="1"></path><path transform="matrix(1,0,0,1,0,0)" fill="none" stroke="#000" d="M0,1050.5L5185,1050.5" stroke-opacity="0.4" stroke-width="1"></path><path transform="matrix(1,0,0,1,0,0)" fill="none" stroke="#000" d="M0,1100.5L5185,1100.5" stroke-opacity="0.4" stroke-width="1"></path><path transform="matrix(1,0,0,1,0,0)" fill="none" stroke="#000" d="M0,1150.5L5185,1150.5" stroke-opacity="0.4" stroke-width="1"></path><path transform="matrix(1,0,0,1,0,0)" fill="none" stroke="#000" d="M0,1200.5L5185,1200.5" stroke-opacity="0.4" stroke-width="1"></path><path transform="matrix(1,0,0,1,0,0)" fill="none" stroke="#000" d="M0,1250.5L5185,1250.5" stroke-opacity="0.4" stroke-width="1"></path><path transform="matrix(1,0,0,1,0,0)" fill="none" stroke="#000" d="M0,1300.5L5185,1300.5" stroke-opacity="0.4" stroke-width="1"></path><path transform="matrix(1,0,0,1,0,0)" fill="none" stroke="#000" d="M0,1350.5L5185,1350.5" stroke-opacity="0.4" stroke-width="1"></path><path transform="matrix(1,0,0,1,0,0)" fill="none" stroke="#000" d="M0,1400.5L5185,1400.5" stroke-opacity="0.4" stroke-width="1"></path><path transform="matrix(1,0,0,1,0,0)" fill="none" stroke="#000" d="M0,1450.5L5185,1450.5" stroke-opacity="0.4" stroke-width="1"></path><path transform="matrix(1,0,0,1,0,0)" fill="none" stroke="#000" d="M0,1500.5L5185,1500.5" stroke-opacity="0.4" stroke-width="1"></path><path transform="matrix(1,0,0,1,0,0)" fill="none" stroke="#000" d="M0,1550.5L5185,1550.5" stroke-opacity="0.4" stroke-width="1"></path><path transform="matrix(1,0,0,1,0,0)" fill="none" stroke="#000" d="M0,1600.5L5185,1600.5" stroke-opacity="0.4" stroke-width="1"></path><path transform="matrix(1,0,0,1,0,0)" fill="none" stroke="#000" d="M0,1650.5L5185,1650.5" stroke-opacity="0.4" stroke-width="1"></path><path transform="matrix(1,0,0,1,0,0)" fill="none" stroke="#000" d="M0,1700.5L5185,1700.5" stroke-opacity="0.4" stroke-width="1"></path><path transform="matrix(1,0,0,1,0,0)" fill="none" stroke="#000" d="M0,1750.5L5185,1750.5" stroke-opacity="0.4" stroke-width="1"></path><path transform="matrix(1,0,0,1,0,0)" fill="none" stroke="#000" d="M0,1800.5L5185,1800.5" stroke-opacity="0.4" stroke-width="1"></path><path transform="matrix(1,0,0,1,0,0)" fill="none" stroke="#000" d="M0,1850.5L5185,1850.5" stroke-opacity="0.4" stroke-width="1"></path><path transform="matrix(1,0,0,1,0,0)" fill="none" stroke="#000" d="M0,1900.5L5185,1900.5" stroke-opacity="0.4" stroke-width="1"></path><path transform="matrix(1,0,0,1,0,0)" fill="none" stroke="#000" d="M0,1950.5L5185,1950.5" stroke-opacity="0.4" stroke-width="1"></path><path transform="matrix(1,0,0,1,0,0)" fill="none" stroke="#000" d="M0,2000.5L5185,2000.5" stroke-opacity="0.4" stroke-width="1"></path><path transform="matrix(1,0,0,1,0,0)" fill="none" stroke="#000" d="M0,2050.5L5185,2050.5" stroke-opacity="0.4" stroke-width="1"></path><path transform="matrix(1,0,0,1,0,0)" fill="none" stroke="#000" d="M0,2100.5L5185,2100.5" stroke-opacity="0.4" stroke-width="1"></path><path transform="matrix(1,0,0,1,0,0)" fill="none" stroke="#000" d="M0,2150.5L5185,2150.5" stroke-opacity="0.4" stroke-width="1"></path><path transform="matrix(1,0,0,1,0,0)" fill="none" stroke="#000" d="M0,2200.5L5185,2200.5" stroke-opacity="0.4" stroke-width="1"></path><path transform="matrix(1,0,0,1,0,0)" fill="none" stroke="#000" d="M0,2250.5L5185,2250.5" stroke-opacity="0.4" stroke-width="1"></path><path transform="matrix(1,0,0,1,0,0)" fill="none" stroke="#000" d="M0,2300.5L5185,2300.5" stroke-opacity="0.4" stroke-width="1"></path><path transform="matrix(1,0,0,1,0,0)" fill="none" stroke="#000" d="M0,2350.5L5185,2350.5" stroke-opacity="0.4" stroke-width="1"></path><path transform="matrix(1,0,0,1,0,0)" fill="none" stroke="#000" d="M0,2400.5L5185,2400.5" stroke-opacity="0.4" stroke-width="1"></path><path transform="matrix(1,0,0,1,0,0)" fill="none" stroke="#000" d="M0,2450.5L5185,2450.5" stroke-opacity="0.4" stroke-width="1"></path><path transform="matrix(1,0,0,1,0,0)" fill="none" stroke="#000" d="M0,2500.5L5185,2500.5" stroke-opacity="0.4" stroke-width="1"></path><path transform="matrix(1,0,0,1,0,0)" fill="none" stroke="#000" d="M0,2550.5L5185,2550.5" stroke-opacity="0.4" stroke-width="1"></path><path transform="matrix(1,0,0,1,0,0)" fill="none" stroke="#000" d="M0,2600.5L5185,2600.5" stroke-opacity="0.4" stroke-width="1"></path><path transform="matrix(1,0,0,1,0,0)" fill="none" stroke="#000" d="M0,2650.5L5185,2650.5" stroke-opacity="0.4" stroke-width="1"></path><path transform="matrix(1,0,0,1,0,0)" fill="none" stroke="#000" d="M0,2700.5L5185,2700.5" stroke-opacity="0.4" stroke-width="1"></path><path transform="matrix(1,0,0,1,0,0)" fill="none" stroke="#000" d="M0,2750.5L5185,2750.5" stroke-opacity="0.4" stroke-width="1"></path><path transform="matrix(1,0,0,1,0,0)" fill="none" stroke="#000" d="M0,2800.5L5185,2800.5" stroke-opacity="0.4" stroke-width="1"></path><path transform="matrix(1,0,0,1,0,0)" fill="none" stroke="#000" d="M0,2850.5L5185,2850.5" stroke-opacity="0.4" stroke-width="1"></path><path transform="matrix(1,0,0,1,0,0)" fill="none" stroke="#000" d="M0,2900.5L5185,2900.5" stroke-opacity="0.4" stroke-width="1"></path><path transform="matrix(1,0,0,1,0,0)" fill="none" stroke="#000" d="M0,2950.5L5185,2950.5" stroke-opacity="0.4" stroke-width="1"></path><path transform="matrix(1,0,0,1,0,0)" fill="none" stroke="#000" d="M0,3000.5L5185,3000.5" stroke-opacity="0.4" stroke-width="1"></path><path transform="matrix(1,0,0,1,0,0)" fill="none" stroke="#000" d="M0,3050.5L5185,3050.5" stroke-opacity="0.4" stroke-width="1"></path><path transform="matrix(1,0,0,1,0,0)" fill="none" stroke="#000" d="M0,3100.5L5185,3100.5" stroke-opacity="0.4" stroke-width="1"></path><path transform="matrix(1,0,0,1,0,0)" fill="none" stroke="#000" d="M0,3150.5L5185,3150.5" stroke-opacity="0.4" stroke-width="1"></path><path transform="matrix(1,0,0,1,0,0)" fill="none" stroke="#000" d="M0,3200.5L5185,3200.5" stroke-opacity="0.4" stroke-width="1"></path><path transform="matrix(1,0,0,1,0,0)" fill="none" stroke="#000" d="M0,3250.5L5185,3250.5" stroke-opacity="0.4" stroke-width="1"></path><path transform="matrix(1,0,0,1,0,0)" fill="none" stroke="#000" d="M0,3300.5L5185,3300.5" stroke-opacity="0.4" stroke-width="1"></path><path transform="matrix(1,0,0,1,0,0)" fill="none" stroke="#000" d="M0,3350.5L5185,3350.5" stroke-opacity="0.4" stroke-width="1"></path><path transform="matrix(1,0,0,1,0,0)" fill="none" stroke="#000" d="M0,3400.5L5185,3400.5" stroke-opacity="0.4" stroke-width="1"></path><path transform="matrix(1,0,0,1,0,0)" fill="none" stroke="#000" d="M0,3450.5L5185,3450.5" stroke-opacity="0.4" stroke-width="1"></path><path transform="matrix(1,0,0,1,0,0)" fill="none" stroke="#000" d="M0,3500.5L5185,3500.5" stroke-opacity="0.4" stroke-width="1"></path><path transform="matrix(1,0,0,1,0,0)" fill="none" stroke="#000" d="M0,3550.5L5185,3550.5" stroke-opacity="0.4" stroke-width="1"></path><path transform="matrix(1,0,0,1,0,0)" fill="none" stroke="#000" d="M0,3600.5L5185,3600.5" stroke-opacity="0.4" stroke-width="1"></path><path transform="matrix(1,0,0,1,0,0)" fill="none" stroke="#000" d="M0,3650.5L5185,3650.5" stroke-opacity="0.4" stroke-width="1"></path><path transform="matrix(1,0,0,1,0,0)" fill="none" stroke="#000" d="M0,3700.5L5185,3700.5" stroke-opacity="0.4" stroke-width="1"></path><path transform="matrix(1,0,0,1,0,0)" fill="none" stroke="#000" d="M0,3750.5L5185,3750.5" stroke-opacity="0.4" stroke-width="1"></path><path transform="matrix(1,0,0,1,0,0)" fill="none" stroke="#000" d="M0,3800.5L5185,3800.5" stroke-opacity="0.4" stroke-width="1"></path><path transform="matrix(1,0,0,1,0,0)" fill="none" stroke="#000" d="M0,3850.5L5185,3850.5" stroke-opacity="0.4" stroke-width="1"></path><rect transform="matrix(1,0,0,1,0,0)" x="1" y="1" width="99" height="99" r="0" rx="0" ry="0" fill="white" stroke="#CF2930" stroke-opacity="1" stroke-width="3" fill-opacity="0.7"></rect><path transform="matrix(1,0,0,1,0,0)" fill="none" stroke="#CF2930" d="M0,50L25,50M50,25L50,0" stroke-opacity="1" stroke-width="3" arrow-start="classic-midium-midium" arrow-end="classic-midium-midium"></path><path transform="matrix(1,0,0,1,0,0)" fill="none" stroke="#CF2930" d="M50,100L50,75M75,50L100,50" stroke-opacity="1" stroke-width="3" arrow-start="classic-midium-midium" arrow-end="classic-midium-midium"></path><text transform="matrix(1,0,0,1,0,0)" style="text-anchor: middle; font: normal normal normal 10px/normal Arial;" x="50" y="50" text-anchor="middle" font="10px &quot;Arial&quot;" stroke="none" fill="#000" stroke-width="1"><tspan dy="3.634615384615385">100 cm</tspan></text></svg>